<mxfile host="app.diagrams.net" modified="2023-07-02T17:56:49.467Z" agent="Mozilla/5.0 (X11; Linux x86_64; rv:109.0) Gecko/20100101 Firefox/114.0" etag="477vSg1eS2jK76wQ-nZh" version="21.5.2" type="github">
  <diagram name="Page-1" id="x79IEOuXiOy33RDYIsep">
    <mxGraphModel dx="673" dy="367" grid="1" gridSize="10" guides="1" tooltips="1" connect="1" arrows="1" fold="1" page="1" pageScale="1" pageWidth="850" pageHeight="1100" math="0" shadow="0">
      <root>
        <mxCell id="0" />
        <mxCell id="1" parent="0" />
        <mxCell id="-XMCD7gTSHBMd93RBd01-16" style="edgeStyle=orthogonalEdgeStyle;rounded=0;orthogonalLoop=1;jettySize=auto;html=1;exitX=0.836;exitY=0.875;exitDx=0;exitDy=0;entryX=0.25;entryY=1;entryDx=0;entryDy=0;exitPerimeter=0;" edge="1" parent="1" source="-XMCD7gTSHBMd93RBd01-1" target="-XMCD7gTSHBMd93RBd01-3">
          <mxGeometry relative="1" as="geometry">
            <Array as="points">
              <mxPoint x="600" y="430" />
            </Array>
          </mxGeometry>
        </mxCell>
        <mxCell id="-XMCD7gTSHBMd93RBd01-17" value="Purchase/Order Details" style="edgeLabel;html=1;align=center;verticalAlign=middle;resizable=0;points=[];fontSize=9;" vertex="1" connectable="0" parent="-XMCD7gTSHBMd93RBd01-16">
          <mxGeometry x="-0.1264" relative="1" as="geometry">
            <mxPoint y="-7" as="offset" />
          </mxGeometry>
        </mxCell>
        <mxCell id="-XMCD7gTSHBMd93RBd01-1" value="&lt;div&gt;Glowlane&lt;/div&gt;&lt;div&gt;Beauty&lt;br&gt;&lt;/div&gt;" style="ellipse;whiteSpace=wrap;html=1;aspect=fixed;" vertex="1" parent="1">
          <mxGeometry x="380" y="360" width="80" height="80" as="geometry" />
        </mxCell>
        <mxCell id="-XMCD7gTSHBMd93RBd01-4" style="edgeStyle=orthogonalEdgeStyle;rounded=0;orthogonalLoop=1;jettySize=auto;html=1;exitX=1;exitY=0.5;exitDx=0;exitDy=0;entryX=0;entryY=0.5;entryDx=0;entryDy=0;" edge="1" parent="1" source="-XMCD7gTSHBMd93RBd01-2" target="-XMCD7gTSHBMd93RBd01-1">
          <mxGeometry relative="1" as="geometry" />
        </mxCell>
        <mxCell id="-XMCD7gTSHBMd93RBd01-5" value="Customer Info" style="edgeLabel;html=1;align=center;verticalAlign=middle;resizable=0;points=[];fontSize=9;" vertex="1" connectable="0" parent="-XMCD7gTSHBMd93RBd01-4">
          <mxGeometry x="-0.0103" y="-1" relative="1" as="geometry">
            <mxPoint y="-8" as="offset" />
          </mxGeometry>
        </mxCell>
        <mxCell id="-XMCD7gTSHBMd93RBd01-6" style="edgeStyle=orthogonalEdgeStyle;rounded=0;orthogonalLoop=1;jettySize=auto;html=1;exitX=0.75;exitY=0;exitDx=0;exitDy=0;entryX=0;entryY=0;entryDx=0;entryDy=0;" edge="1" parent="1" source="-XMCD7gTSHBMd93RBd01-2" target="-XMCD7gTSHBMd93RBd01-1">
          <mxGeometry relative="1" as="geometry">
            <Array as="points">
              <mxPoint x="240" y="372" />
              <mxPoint x="320" y="372" />
            </Array>
          </mxGeometry>
        </mxCell>
        <mxCell id="-XMCD7gTSHBMd93RBd01-7" value="Purchase/Order Details" style="edgeLabel;html=1;align=center;verticalAlign=middle;resizable=0;points=[];fontSize=9;" vertex="1" connectable="0" parent="-XMCD7gTSHBMd93RBd01-6">
          <mxGeometry x="0.1069" y="1" relative="1" as="geometry">
            <mxPoint y="-6" as="offset" />
          </mxGeometry>
        </mxCell>
        <mxCell id="-XMCD7gTSHBMd93RBd01-8" style="edgeStyle=orthogonalEdgeStyle;rounded=0;orthogonalLoop=1;jettySize=auto;html=1;exitX=0.75;exitY=1;exitDx=0;exitDy=0;entryX=0;entryY=1;entryDx=0;entryDy=0;startArrow=classic;startFill=1;endArrow=none;endFill=0;" edge="1" parent="1" source="-XMCD7gTSHBMd93RBd01-2" target="-XMCD7gTSHBMd93RBd01-1">
          <mxGeometry relative="1" as="geometry">
            <Array as="points">
              <mxPoint x="240" y="430" />
              <mxPoint x="392" y="430" />
            </Array>
          </mxGeometry>
        </mxCell>
        <mxCell id="-XMCD7gTSHBMd93RBd01-9" value="Payment Details" style="edgeLabel;html=1;align=center;verticalAlign=middle;resizable=0;points=[];fontSize=9;" vertex="1" connectable="0" parent="-XMCD7gTSHBMd93RBd01-8">
          <mxGeometry x="0.105" relative="1" as="geometry">
            <mxPoint y="-7" as="offset" />
          </mxGeometry>
        </mxCell>
        <mxCell id="-XMCD7gTSHBMd93RBd01-2" value="Customer" style="rounded=1;whiteSpace=wrap;html=1;" vertex="1" parent="1">
          <mxGeometry x="180" y="380" width="80" height="40" as="geometry" />
        </mxCell>
        <mxCell id="-XMCD7gTSHBMd93RBd01-10" style="edgeStyle=orthogonalEdgeStyle;rounded=0;orthogonalLoop=1;jettySize=auto;html=1;exitX=0;exitY=0.25;exitDx=0;exitDy=0;entryX=0.973;entryY=0.363;entryDx=0;entryDy=0;entryPerimeter=0;" edge="1" parent="1" source="-XMCD7gTSHBMd93RBd01-3" target="-XMCD7gTSHBMd93RBd01-1">
          <mxGeometry relative="1" as="geometry">
            <Array as="points">
              <mxPoint x="458" y="390" />
            </Array>
          </mxGeometry>
        </mxCell>
        <mxCell id="-XMCD7gTSHBMd93RBd01-11" value="Product Record" style="edgeLabel;html=1;align=center;verticalAlign=middle;resizable=0;points=[];fontSize=9;" vertex="1" connectable="0" parent="-XMCD7gTSHBMd93RBd01-10">
          <mxGeometry x="0.0077" y="1" relative="1" as="geometry">
            <mxPoint y="-8" as="offset" />
          </mxGeometry>
        </mxCell>
        <mxCell id="-XMCD7gTSHBMd93RBd01-12" style="edgeStyle=orthogonalEdgeStyle;rounded=0;orthogonalLoop=1;jettySize=auto;html=1;exitX=0.25;exitY=0;exitDx=0;exitDy=0;entryX=1;entryY=0;entryDx=0;entryDy=0;" edge="1" parent="1" source="-XMCD7gTSHBMd93RBd01-3" target="-XMCD7gTSHBMd93RBd01-1">
          <mxGeometry relative="1" as="geometry">
            <Array as="points">
              <mxPoint x="600" y="372" />
              <mxPoint x="520" y="372" />
            </Array>
          </mxGeometry>
        </mxCell>
        <mxCell id="-XMCD7gTSHBMd93RBd01-13" value="Price Details" style="edgeLabel;html=1;align=center;verticalAlign=middle;resizable=0;points=[];fontSize=9;" vertex="1" connectable="0" parent="-XMCD7gTSHBMd93RBd01-12">
          <mxGeometry x="0.0804" relative="1" as="geometry">
            <mxPoint y="-7" as="offset" />
          </mxGeometry>
        </mxCell>
        <mxCell id="-XMCD7gTSHBMd93RBd01-14" style="edgeStyle=orthogonalEdgeStyle;rounded=0;orthogonalLoop=1;jettySize=auto;html=1;exitX=0;exitY=0.75;exitDx=0;exitDy=0;entryX=0.98;entryY=0.613;entryDx=0;entryDy=0;entryPerimeter=0;startArrow=classic;startFill=1;endArrow=none;endFill=0;" edge="1" parent="1" source="-XMCD7gTSHBMd93RBd01-3" target="-XMCD7gTSHBMd93RBd01-1">
          <mxGeometry relative="1" as="geometry">
            <Array as="points">
              <mxPoint x="458" y="410" />
            </Array>
          </mxGeometry>
        </mxCell>
        <mxCell id="-XMCD7gTSHBMd93RBd01-15" value="Customer Info" style="edgeLabel;html=1;align=center;verticalAlign=middle;resizable=0;points=[];fontSize=9;" vertex="1" connectable="0" parent="-XMCD7gTSHBMd93RBd01-14">
          <mxGeometry x="-0.0149" relative="1" as="geometry">
            <mxPoint y="-7" as="offset" />
          </mxGeometry>
        </mxCell>
        <mxCell id="-XMCD7gTSHBMd93RBd01-3" value="Admin" style="rounded=1;whiteSpace=wrap;html=1;" vertex="1" parent="1">
          <mxGeometry x="580" y="380" width="80" height="40" as="geometry" />
        </mxCell>
      </root>
    </mxGraphModel>
  </diagram>
</mxfile>
